Run_30002
nRows=4
nColumns=173

# SIMM Motion File Header:
name Run_30002
datacolumns 173
datarows 4
otherdata 1
range 0.01000000 0.04000000
endheader
time	pelvis_tilt	pelvis_list	pelvis_rotation	pelvis_tx	pelvis_ty	pelvis_tz	hip_flexion_r	hip_adduction_r	hip_rotation_r	knee_angle_r	ankle_angle_r	hip_flexion_l	hip_adduction_l	hip_rotation_l	knee_angle_l	ankle_angle_l	lumbar_extension	lumbar_bending	lumbar_rotation	arm_flex_r	arm_add_r	arm_rot_r	elbow_flex_r	pro_sup_r	arm_flex_l	arm_add_l	arm_rot_l	elbow_flex_l	pro_sup_l	subtalar_angle_r	mtp_angle_r	subtalar_angle_l	mtp_angle_l	wrist_flex_r	wrist_dev_r	wrist_flex_l	wrist_dev_l	LASI_tx	LASI_ty	LASI_tz	RASI_tx	RASI_ty	RASI_tz	LPSI_tx	LPSI_ty	LPSI_tz	RPSI_tx	RPSI_ty	RPSI_tz	RTH1_tx	RTH1_ty	RTH1_tz	RTH2_tx	RTH2_ty	RTH2_tz	RTH3_tx	RTH3_ty	RTH3_tz	LTH1_tx	LTH1_ty	LTH1_tz	LTH2_tx	LTH2_ty	LTH2_tz	LTH3_tx	LTH3_ty	LTH3_tz	RTB1_tx	RTB1_ty	RTB1_tz	RTB2_tx	RTB2_ty	RTB2_tz	RTB3_tx	RTB3_ty	RTB3_tz	RLMAL_tx	RLMAL_ty	RLMAL_tz	RMMAL_tx	RMMAL_ty	RMMAL_tz	LTB1_tx	LTB1_ty	LTB1_tz	LTB2_tx	LTB2_ty	LTB2_tz	LTB3_tx	LTB3_ty	LTB3_tz	RCAL_tx	RCAL_ty	RCAL_tz	RTOE_tx	RTOE_ty	RTOE_tz	RMT5_tx	RMT5_ty	RMT5_tz	LCAL_tx	LCAL_ty	LCAL_tz	LTOE_tx	LTOE_ty	LTOE_tz	LMT5_tx	LMT5_ty	LMT5_tz	LACR_tx	LACR_ty	LACR_tz	RACR_tx	RACR_ty	RACR_tz	CLAV_tx	CLAV_ty	CLAV_tz	C7_tx	C7_ty	C7_tz	LPSH_tx	LPSH_ty	LPSH_tz	RUA1_tx	RUA1_ty	RUA1_tz	RUA2_tx	RUA2_ty	RUA2_tz	RUA3_tx	RUA3_ty	RUA3_tz	RLEL_tx	RLEL_ty	RLEL_tz	RMEL_tx	RMEL_ty	RMEL_tz	LUA1_tx	LUA1_ty	LUA1_tz	LUA2_tx	LUA2_ty	LUA2_tz	LUA3_tx	LUA3_ty	LUA3_tz	LLEL_tx	LLEL_ty	LLEL_tz	LMEL_tx	LMEL_ty	LMEL_tz	RFAsuperior_tx	RFAsuperior_ty	RFAsuperior_tz	RFAradius_tx	RFAradius_ty	RFAradius_tz	RFAulna_tx	RFAulna_ty	RFAulna_tz	LFAsuperior_tx	LFAsuperior_ty	LFAsuperior_tz	LFAradius_tx	LFAradius_ty	LFAradius_tz	LFAulna_tx	LFAulna_ty	LFAulna_tz
      0.01000000	     -5.47609938	     -0.08922234	      0.93753037	      0.94717990	      1.04883981	     -0.30950759	    -15.60494766	      4.25579955	      5.20388180	    -11.81561207	    -15.43846630	     36.36141389	      5.93138888	      8.26997468	    -44.90507325	      3.12145993	     -1.02436720	      3.29783714	     15.58549073	    -20.59937129	    -15.92436332	      1.63616885	    126.67741596	    101.44232735	    -41.03691881	    -12.42331856	     -5.16924307	    124.89171331	     87.89233804	      0.00000000	      0.00000000	      0.00000000	      0.00000000	      0.00000000	      0.00000000	      0.00000000	      0.00000000	      0.95209792	      1.09138076	     -0.42068434	      0.96401161	      1.08032841	     -0.19324856	      0.79516561	      1.13090287	     -0.35109590	      0.79797884	      1.12810274	     -0.26164261	      0.80013861	      0.84243067	     -0.13952893	      0.84563600	      0.75512410	     -0.16992207	      0.74346677	      0.68385654	     -0.17046534	      0.91465163	      0.87841018	     -0.46666572	      1.03364140	      0.81276661	     -0.45771217	      1.02673422	      0.70254899	     -0.43845872	      0.67584188	      0.43743383	     -0.21645605	      0.60604712	      0.41142785	     -0.17930420	      0.56455089	      0.28923637	     -0.22890819	      0.46972155	      0.21273494	     -0.22006005	      0.50644044	      0.22046460	     -0.29655238	      1.10041819	      0.48359450	     -0.40960293	      0.99754990	      0.39777610	     -0.43013498	      1.04771313	      0.29817215	     -0.39219434	      0.41763885	      0.23894465	     -0.28675123	      0.54815635	      0.07235179	     -0.27233396	      0.48539452	      0.08771797	     -0.20392936	      0.92315408	      0.16646210	     -0.33973286	      1.13945675	      0.11435657	     -0.37096062	      1.07532280	      0.10301794	     -0.43470392	      0.87589795	      1.59435694	     -0.45028822	      0.95046449	      1.56538569	     -0.14362624	      0.99024024	      1.51395130	     -0.28994520	      0.88121348	      1.60389467	     -0.28746261	      0.79266192	      1.56765191	     -0.43331500	      0.92714206	      1.41891258	     -0.05022085	      0.84858434	      1.36991509	     -0.03992294	      0.86713916	      1.31454932	      0.00011151	      0.88921777	      1.24776711	      0.01603912	      0.82488980	      1.23584735	     -0.05080810	      0.75626591	      1.50826370	     -0.48811704	      0.68913323	      1.45283474	     -0.44671871	      0.66323631	      1.41638188	     -0.50784195	      0.63061026	      1.34234544	     -0.52987566	      0.62969016	      1.33357322	     -0.43939004	      0.93501509	      1.21132189	     -0.03676920	      1.04524787	      1.29403485	     -0.18280760	      1.06105688	      1.22907970	     -0.17036094	      0.69709907	      1.27311202	     -0.51230027	      0.86993014	      1.29568673	     -0.49688831	      0.85803413	      1.22888293	     -0.50567978
      0.02000000	     -5.64644611	     -0.51001628	      0.82190414	      0.94820483	      1.05267423	     -0.30917836	    -15.70826543	      4.66398632	      4.48698535	    -13.34270955	    -17.22975262	     34.94905924	      5.15590533	      8.38080692	    -38.18651623	      2.19087776	     -0.80199530	      3.64812101	     15.68189039	    -21.06264426	    -15.99740033	      2.49510808	    127.39246111	    101.40598961	    -42.30891261	    -11.20511237	     -6.29225459	    125.55890249	     87.87180164	      0.00000000	      0.00000000	      0.00000000	      0.00000000	      0.00000000	      0.00000000	      0.00000000	      0.00000000	      0.95305460	      1.09551735	     -0.42000644	      0.96499623	      1.08491945	     -0.19316956	      0.79693883	      1.13486467	     -0.35171658	      0.79933860	      1.13229277	     -0.26183354	      0.79832256	      0.84854483	     -0.13988121	      0.84384300	      0.76030716	     -0.16933385	      0.74183453	      0.68946119	     -0.17057930	      0.91172479	      0.87861385	     -0.46494623	      1.02717947	      0.81030716	     -0.45816363	      1.01876176	      0.70056835	     -0.43890140	      0.66943842	      0.44397781	     -0.21687385	      0.59924393	      0.42015963	     -0.17969047	      0.55320339	      0.29976943	     -0.22881861	      0.45577146	      0.22729647	     -0.21988867	      0.49288683	      0.23270025	     -0.29558745	      1.10152083	      0.48178855	     -0.41001660	      1.00762812	      0.38706791	     -0.42978841	      1.06535802	      0.29294277	     -0.39045906	      0.40702164	      0.25704986	     -0.28631537	      0.53002038	      0.07647705	     -0.27040413	      0.46465802	      0.10151066	     -0.20367993	      0.95168465	      0.15301070	     -0.33782721	      1.17146311	      0.11606461	     -0.36462101	      1.10945171	      0.09911874	     -0.42900243	      0.87645578	      1.59838067	     -0.45098155	      0.95095272	      1.56953991	     -0.14533905	      0.99119448	      1.51794616	     -0.29137500	      0.88179269	      1.60719063	     -0.28851086	      0.79318309	      1.57278808	     -0.43289509	      0.92826980	      1.42402913	     -0.05159994	      0.84942968	      1.37615555	     -0.03950831	      0.86762799	      1.32029891	     -0.00036511	      0.88896217	      1.25312712	      0.01588481	      0.82358642	      1.24180063	     -0.05043016	      0.75570757	      1.51435543	     -0.48598715	      0.68992014	      1.45959608	     -0.44242987	      0.66140227	      1.42341218	     -0.50212480	      0.62688355	      1.34931869	     -0.52303796	      0.62856161	      1.34090904	     -0.43242931	      0.93389973	      1.21697657	     -0.03782791	      1.04220889	      1.30053083	     -0.18494556	      1.05803496	      1.23548921	     -0.17324254	      0.69355470	      1.27972260	     -0.50690743	      0.86687510	      1.30189592	     -0.49651733	      0.85466885	      1.23505920	     -0.50454011
      0.03000000	     -5.64819520	     -0.92373527	      0.62561586	      0.94926450	      1.05580812	     -0.30857361	    -15.66406923	      5.08823794	      4.02402378	    -15.72883821	    -18.13953361	     33.25632456	      4.30605741	      8.13852844	    -31.58418794	      0.69667891	     -0.78257995	      3.95374574	     15.80903994	    -21.51629109	    -16.06650514	      3.24905683	    127.96597164	    101.31092863	    -43.44857773	    -10.05005584	     -7.42617978	    126.24423186	     88.05967623	      0.00000000	      0.00000000	      0.00000000	      0.00000000	      0.00000000	      0.00000000	      0.00000000	      0.00000000	      0.95402490	      1.09844106	     -0.41908380	      0.96567437	      1.08893769	     -0.19267729	      0.79825987	      1.13789509	     -0.35214546	      0.80031983	      1.13578282	     -0.26173778	      0.79828898	      0.85291463	     -0.13975971	      0.84407972	      0.76417529	     -0.16992732	      0.74234637	      0.69337113	     -0.17080381	      0.90818815	      0.87833010	     -0.46349497	      1.02105815	      0.80739207	     -0.45835537	      1.01072954	      0.69785313	     -0.44013897	      0.66422542	      0.44951600	     -0.21755057	      0.59331215	      0.42835008	     -0.18032653	      0.54219548	      0.31018413	     -0.22889669	      0.44165444	      0.24239006	     -0.22006247	      0.47957928	      0.24508096	     -0.29504801	      1.10170100	      0.47965369	     -0.41063543	      1.01628967	      0.37725640	     -0.42894678	      1.08114819	      0.28852463	     -0.38833974	      0.39639598	      0.27479952	     -0.28686941	      0.51052350	      0.08326131	     -0.26781932	      0.44381508	      0.11634467	     -0.20288546	      0.97811897	      0.14202535	     -0.33490030	      1.20043842	      0.11829964	     -0.35839089	      1.14027222	      0.09612146	     -0.42314636	      0.87712835	      1.60146244	     -0.45193386	      0.95126197	      1.57292443	     -0.14703432	      0.99217814	      1.52120949	     -0.29288125	      0.88241423	      1.60989236	     -0.28983778	      0.79386699	      1.57691093	     -0.43288526	      0.92904362	      1.42820996	     -0.05292982	      0.84991049	      1.38145761	     -0.03933431	      0.86768833	      1.32521746	     -0.00078198	      0.88821643	      1.25769606	      0.01587272	      0.82204913	      1.24703295	     -0.05013653	      0.75528429	      1.51934780	     -0.48419508	      0.69080953	      1.46510339	     -0.43842993	      0.65988345	      1.42929772	     -0.49697997	      0.62377489	      1.35512846	     -0.51703049	      0.62787155	      1.34702078	     -0.42624470	      0.93240476	      1.22172646	     -0.03846777	      1.03931604	      1.30551156	     -0.18658931	      1.05497099	      1.24036523	     -0.17550093	      0.69065023	      1.28525363	     -0.50219744	      0.86434190	      1.30714209	     -0.49632514	      0.85192812	      1.24031961	     -0.50392243
      0.04000000	     -5.46286121	     -1.20161251	      0.40467751	      0.95028456	      1.05791281	     -0.30790383	    -15.34601561	      5.42115217	      3.81696077	    -19.32920578	    -17.74563247	     31.47274140	      3.58457414	      7.24434956	    -25.72839248	     -0.90533644	     -0.99532871	      4.07291422	     15.87074008	    -21.94575723	    -16.11162813	      3.82714381	    128.27471997	    101.17478532	    -44.35820515	     -9.01824918	     -8.55509637	    126.90007052	     88.47720868	      0.00000000	      0.00000000	      0.00000000	      0.00000000	      0.00000000	      0.00000000	      0.00000000	      0.00000000	      0.95499072	      1.09964849	     -0.41793710	      0.96598982	      1.09199300	     -0.19168358	      0.79898334	      1.13950073	     -0.35226369	      0.80090670	      1.13806001	     -0.26134828	      0.80105547	      0.85438681	     -0.13944514	      0.84708128	      0.76606710	     -0.17203083	      0.74582582	      0.69475279	     -0.17126206	      0.90432284	      0.87767060	     -0.46273000	      1.01557636	      0.80391133	     -0.45844838	      1.00268015	      0.69418988	     -0.44242826	      0.66085096	      0.45350867	     -0.21855883	      0.58877974	      0.43584680	     -0.18140107	      0.53189552	      0.32049517	     -0.22919097	      0.42768251	      0.25830244	     -0.22071018	      0.46679132	      0.25773985	     -0.29508147	      1.10042631	      0.47710576	     -0.41148928	      1.02243803	      0.36893093	     -0.42736733	      1.09374010	      0.28530355	     -0.38588095	      0.38574418	      0.29195498	     -0.28872874	      0.49004019	      0.09389807	     -0.26410127	      0.42350632	      0.13286443	     -0.20109770	      1.00077310	      0.13460476	     -0.33037707	      1.22426882	      0.12118342	     -0.35284727	      1.16538378	      0.09460687	     -0.41756044	      0.87802061	      1.60312214	     -0.45333337	      0.95143287	      1.57511911	     -0.14870730	      0.99315883	      1.52333023	     -0.29447388	      0.88306960	      1.61168461	     -0.29158666	      0.79480914	      1.57945116	     -0.43357344	      0.92918077	      1.43101072	     -0.05411709	      0.84973070	      1.38532768	     -0.03959177	      0.86701726	      1.32892145	     -0.00112634	      0.88665804	      1.26110083	      0.01603210	      0.82006972	      1.25112233	     -0.04996892	      0.75516772	      1.52259849	     -0.48311203	      0.69194146	      1.46863755	     -0.43512657	      0.65890537	      1.43337496	     -0.49284037	      0.62164820	      1.35907646	     -0.51247818	      0.62785925	      1.35116296	     -0.42139303	      0.93024900	      1.22504583	     -0.03858733	      1.03666935	      1.30809624	     -0.18749430	      1.05193144	      1.24283848	     -0.17677791	      0.68878454	      1.28905821	     -0.49869626	      0.86269061	      1.31085434	     -0.49647484	      0.85019587	      1.24407285	     -0.50406522
